{"asset":{"copyright":"","generator":"Source 2 Viewer 19.2.0.0 - https://valveresourceformat.github.io","version":"2.0"},"accessors":[{"bufferView":0,"componentType":5126,"count":13663,"max":[8.739999771118164,24.404314041137695,84.7893295288086],"min":[-11.206243515014648,-24.404170989990234,-2.993248701095581],"type":"VEC3"},{"bufferView":1,"componentType":5126,"count":13663,"max":[1,1,1],"min":[-1,-1,-1],"type":"VEC3"},{"bufferView":2,"componentType":5126,"count":13663,"max":[1,1],"min":[-0.22412486374378204,-0.2576003074645996],"type":"VEC2"},{"bufferView":3,"componentType":5125,"count":70872,"type":"SCALAR"}],"bufferViews":[{"buffer":0,"byteLength":163956,"byteOffset":283488,"target":34962},{"buffer":0,"byteLength":163956,"byteOffset":447444,"target":34962},{"buffer":0,"byteLength":109304,"byteOffset":611400,"target":34962},{"buffer":0,"byteLength":283488,"target":34963}],"buffers":[{"byteLength":720704,"uri":"bookworm_physics.bin"}],"images":[{"name":"physics_default","uri":"physics_default.png"}],"materials":[{"name":"physics_group_material","pbrMetallicRoughness":{"baseColorFactor":[0.5,0.5,1,1],"baseColorTexture":{"index":0},"metallicFactor":0}}],"meshes":[{"name":"physics_group","primitives":[{"attributes":{"POSITION":0,"NORMAL":1,"TEXCOORD_0":2},"indices":3,"material":0}]}],"nodes":[{"extras":{"SurfaceProperty":"default","InteractAs":[]},"name":"physics_group","matrix":[3.027916E-09,0,0.025399996,0,0.025399996,3.027916E-09,0,0,0,0.025399996,3.027916E-09,0,0,0,0,1],"mesh":0}],"samplers":[{"magFilter":9729,"minFilter":9987}],"scenes":[{"name":"bookworm.vmdl_c","nodes":[0]}],"textures":[{"name":"physics_default","sampler":0,"source":0}]}