{"asset":{"copyright":"","generator":"Source 2 Viewer 20.0.0.0 - https://valveresourceformat.github.io","version":"2.0"},"accessors":[{"bufferView":0,"componentType":5126,"count":14009,"max":[26.454240798950195,26.454235076904297,93.2990951538086],"min":[-26.45424461364746,-26.45425033569336,-6.83521842956543],"type":"VEC3"},{"bufferView":1,"componentType":5126,"count":14009,"max":[1,1,1],"min":[-1,-1,-1],"type":"VEC3"},{"bufferView":2,"componentType":5126,"count":14009,"max":[1.622072696685791,1.622072696685791],"min":[-0.5290848612785339,-0.5290846824645996],"type":"VEC2"},{"bufferView":3,"componentType":5125,"count":73080,"type":"SCALAR"}],"bufferViews":[{"buffer":0,"byteLength":168108,"byteOffset":292320,"target":34962},{"buffer":0,"byteLength":168108,"byteOffset":460428,"target":34962},{"buffer":0,"byteLength":112072,"byteOffset":628536,"target":34962},{"buffer":0,"byteLength":292320,"target":34963}],"buffers":[{"byteLength":740608,"uri":"vampirebat_physics.bin"}],"images":[{"name":"physics_default","uri":"physics_default.png"}],"materials":[{"name":"physics_group_material","pbrMetallicRoughness":{"baseColorFactor":[0.5,0.5,1,1],"baseColorTexture":{"index":0},"metallicFactor":0}}],"meshes":[{"name":"physics_group","primitives":[{"attributes":{"POSITION":0,"NORMAL":1,"TEXCOORD_0":2},"indices":3,"material":0}]}],"nodes":[{"extras":{"SurfaceProperty":"default","InteractAs":[]},"name":"physics_group","matrix":[3.027916E-09,0,0.025399996,0,0.025399996,3.027916E-09,0,0,0,0.025399996,3.027916E-09,0,0,0,0,1],"mesh":0}],"samplers":[{"magFilter":9729,"minFilter":9987}],"scenes":[{"name":"vampirebat.vmdl_c","nodes":[0]}],"textures":[{"name":"physics_default","sampler":0,"source":0}]}